PathFileType	4	(X/Y/Z)	c:/Users/goper/Files/vsCode/490R/osim_files/C07/C07_Fast_05.trc
DataRate	CameraRate	NumFrames	NumMarkers	Units                	OrigDataRate	OrigDataStartFrame	OrigNumFrames
250.00	250.00	9	36	mm	250.0	2716	3103
                Frame#	Time	LPSIS			LASIS			LTH1			LTH2			LTH3			LTH4			LLFE			LMFE			LSH1			LSH2			LSH3			LSH4			LLMAL			LMMAL			LCAL			LMTP5			LTOE			LMTP1			RPSIS			RASIS			RTH1			RTH2			RTH3			RTH4			RLFE			RMFE			RSH1			RSH2			RSH3			RSH4			RLMAL			RMMAL			RCAL			RMTP1			RTOE			RMTP5		
		X1	Y1	Z1	X2	Y2	Z2	X3	Y3	Z3	X4	Y4	Z4	X5	Y5	Z5	X6	Y6	Z6	X7	Y7	Z7	X8	Y8	Z8	X9	Y9	Z9	X10	Y10	Z10	X11	Y11	Z11	X12	Y12	Z12	X13	Y13	Z13	X14	Y14	Z14	X15	Y15	Z15	X16	Y16	Z16	X17	Y17	Z17	X18	Y18	Z18	X19	Y19	Z19	X20	Y20	Z20	X21	Y21	Z21	X22	Y22	Z22	X23	Y23	Z23	X24	Y24	Z24	X25	Y25	Z25	X26	Y26	Z26	X27	Y27	Z27	X28	Y28	Z28	X29	Y29	Z29	X30	Y30	Z30	X31	Y31	Z31	X32	Y32	Z32	X33	Y33	Z33	X34	Y34	Z34	X35	Y35	Z35	X36	Y36	Z36

2716	10.86000	-2690.30835	997.25543	223.71028	-2785.00732	979.33160	381.73831	0.00000	0.00000	0.00000	0.00000	0.00000	0.00000	-2855.54614	647.46899	442.63394	-2878.28149	755.58044	451.29489	0.00000	0.00000	0.00000	-2894.27295	532.42950	430.18661	0.00000	0.00000	0.00000	0.00000	0.00000	0.00000	-2864.13818	367.85599	393.63004	0.00000	0.00000	0.00000	-2762.72827	188.83379	267.11969	-2826.11646	206.69960	221.33789	-2716.92944	163.52226	181.33826	-2819.88721	69.31005	317.77063	-2898.42407	64.33787	295.44839	-2896.69849	66.43108	236.73331	0.00000	0.00000	0.00000	0.00000	0.00000	0.00000	-2983.11938	763.24274	158.10555	0.00000	0.00000	0.00000	0.00000	0.00000	0.00000	0.00000	0.00000	0.00000	-2927.36523	500.09796	105.62080	-2869.98340	498.36893	203.89590	0.00000	0.00000	0.00000	0.00000	0.00000	0.00000	0.00000	0.00000	0.00000	-2886.38403	274.78622	53.02350	-2824.80273	105.29561	61.69064	-2819.58105	105.37300	145.25351	-2757.47461	51.32737	83.53937	-2947.84790	41.12037	180.71852	-2987.95776	52.44757	141.72963	-2959.45679	39.77639	69.09670
2717	10.86400	-2693.14966	997.71942	223.93214	-2787.04150	979.41608	382.37677	0.00000	0.00000	0.00000	0.00000	0.00000	0.00000	-2857.34839	647.92816	444.17313	-2879.97363	756.14728	452.66632	0.00000	0.00000	0.00000	-2896.35742	532.64532	431.94910	-2828.20190	372.37146	389.44351	0.00000	0.00000	0.00000	-2868.75464	366.71707	395.82990	0.00000	0.00000	0.00000	-2769.05566	186.85805	266.39594	-2836.35449	203.78998	224.43690	-2729.35474	158.07706	183.02936	-2831.11157	67.35474	322.23044	-2906.67725	63.73930	302.50980	-2909.72778	65.47147	242.67006	0.00000	0.00000	0.00000	0.00000	0.00000	0.00000	-2985.17969	762.82416	159.43681	0.00000	0.00000	0.00000	0.00000	0.00000	0.00000	0.00000	0.00000	0.00000	-2927.76660	500.16428	105.68830	-2871.93848	498.35590	204.65041	0.00000	0.00000	0.00000	0.00000	0.00000	0.00000	0.00000	0.00000	0.00000	-2886.43091	274.88232	53.04470	-2824.25488	105.26582	61.53420	-2819.55176	105.41454	145.35579	-2757.97266	51.68840	83.42751	-2947.86108	41.07475	180.75653	-2987.95874	52.41306	141.76433	-2959.47095	39.75410	69.17789
2718	10.86800	-2696.07300	998.09576	224.20636	-2789.14819	979.48273	383.04996	0.00000	0.00000	0.00000	0.00000	0.00000	0.00000	-2859.09937	648.43018	445.71793	-2881.65308	756.66205	453.96869	0.00000	0.00000	0.00000	-2898.13135	532.96686	433.52545	-2832.86084	370.37280	390.98337	0.00000	0.00000	0.00000	-2873.59888	365.71399	398.07431	0.00000	0.00000	0.00000	-2779.16309	182.57323	269.88303	-2844.43750	200.66891	227.66310	-2742.03149	152.62929	185.09158	-2847.16455	64.48476	328.31128	-2918.13843	63.33944	308.65741	-2921.26587	63.73447	248.56340	0.00000	0.00000	0.00000	0.00000	0.00000	0.00000	0.00000	0.00000	0.00000	0.00000	0.00000	0.00000	-2934.61621	901.20697	6.40339	0.00000	0.00000	0.00000	-2928.19873	500.28125	105.81921	-2872.28809	498.42136	204.71077	0.00000	0.00000	0.00000	0.00000	0.00000	0.00000	0.00000	0.00000	0.00000	-2886.47705	274.94968	53.03114	-2824.87646	105.50892	61.90793	-2819.67529	105.52724	145.44829	-2757.50293	51.48671	83.75052	-2947.88110	41.02761	180.76440	-2988.18091	51.94672	142.14272	-2959.49219	39.77671	69.18913
2719	10.87200	-2698.89673	998.43439	224.54111	-2791.23096	979.54352	383.68042	0.00000	0.00000	0.00000	0.00000	0.00000	0.00000	-2860.69897	648.71228	447.19394	-2883.20850	757.10931	455.31137	0.00000	0.00000	0.00000	-2899.74243	533.16016	434.97198	0.00000	0.00000	0.00000	0.00000	0.00000	0.00000	-2878.01807	364.56134	400.34470	0.00000	0.00000	0.00000	-2789.07202	178.90767	272.18491	-2857.06055	197.93414	230.98129	-2753.48096	147.19743	186.54428	-2855.56006	63.74720	331.65225	-2929.62036	63.06955	315.16110	-2933.03979	62.84153	254.67590	0.00000	0.00000	0.00000	0.00000	0.00000	0.00000	0.00000	0.00000	0.00000	0.00000	0.00000	0.00000	-2937.39844	901.25391	7.73126	0.00000	0.00000	0.00000	-2928.57275	500.32843	105.93487	-2871.01904	498.64984	204.12050	0.00000	0.00000	0.00000	0.00000	0.00000	0.00000	0.00000	0.00000	0.00000	-2886.50952	275.06146	53.07465	-2824.38013	105.50256	61.76308	-2819.71069	105.58929	145.54814	-2757.51709	51.56347	83.87206	-2947.95386	41.05221	180.80634	-2988.20215	51.96449	142.21301	-2959.45728	39.74802	69.21195
2720	10.87600	-2701.66040	998.82605	224.72711	-2793.27344	979.52686	384.36981	0.00000	0.00000	0.00000	0.00000	0.00000	0.00000	-2862.03491	649.11646	448.49146	-2884.52319	757.43439	456.64029	0.00000	0.00000	0.00000	-2901.21802	533.17841	436.52042	-2842.09302	366.61603	394.21024	0.00000	0.00000	0.00000	-2882.80835	363.61420	402.59991	0.00000	0.00000	0.00000	-2802.37256	174.03656	276.30685	-2867.23950	195.13213	234.57495	-2764.61133	142.12201	188.41415	-2865.46387	62.40555	336.38971	-2946.10815	64.72302	323.02521	-2947.28516	62.17212	261.83820	0.00000	0.00000	0.00000	-2944.13086	985.11072	181.02515	-2991.30591	762.09277	159.89615	0.00000	0.00000	0.00000	0.00000	0.00000	0.00000	0.00000	0.00000	0.00000	-2928.92505	500.39066	106.04427	-2871.42627	498.77634	204.23906	0.00000	0.00000	0.00000	0.00000	0.00000	0.00000	0.00000	0.00000	0.00000	-2886.52271	275.15878	53.06752	-2824.93237	105.72018	62.11641	-2819.78589	105.67298	145.65744	-2757.53101	51.66438	83.97213	-2947.92896	41.03667	180.81970	-2988.04053	52.38582	141.86703	-2959.45728	39.74868	69.24587
2721	10.88000	-2704.59521	999.03088	225.03876	-2795.24463	979.48969	385.03290	0.00000	0.00000	0.00000	0.00000	0.00000	0.00000	-2863.10596	649.17450	449.75543	-2885.61743	757.54395	457.86627	0.00000	0.00000	0.00000	-2902.81445	533.15857	437.95825	0.00000	0.00000	0.00000	0.00000	0.00000	0.00000	-2887.07227	362.49216	404.83453	0.00000	0.00000	0.00000	-2811.39722	171.02377	274.65262	-2875.64014	192.08376	238.26776	-2776.51294	136.83719	190.55029	0.00000	0.00000	0.00000	-2957.07520	64.41401	329.86505	0.00000	0.00000	0.00000	0.00000	0.00000	0.00000	-2947.25952	985.11646	182.49434	-2993.10815	762.12061	162.70030	0.00000	0.00000	0.00000	0.00000	0.00000	0.00000	0.00000	0.00000	0.00000	-2929.31909	500.46225	106.19317	-2871.67847	498.79584	204.30225	0.00000	0.00000	0.00000	0.00000	0.00000	0.00000	0.00000	0.00000	0.00000	-2886.53125	275.25662	53.13092	-2824.92188	105.79266	62.20679	-2819.82544	105.71977	145.75531	-2757.55981	51.69162	84.11919	-2947.92969	41.02538	180.83340	-2988.22583	51.95410	142.22443	-2959.46582	39.76205	69.28320
2722	10.88400	-2707.40381	999.42584	225.23431	-2797.29468	979.40900	385.70566	0.00000	0.00000	0.00000	0.00000	0.00000	0.00000	-2864.45337	649.28442	450.92551	-2886.89429	757.63245	459.14453	0.00000	0.00000	0.00000	-2904.07690	533.12488	439.13318	-2851.21191	362.93585	397.19559	0.00000	0.00000	0.00000	-2891.59473	361.53458	407.14197	0.00000	0.00000	0.00000	-2821.42334	167.37860	277.38147	-2886.28491	189.31627	242.20288	-2790.69727	131.42526	193.89767	-2888.59131	58.29035	345.38843	-2967.84790	64.21720	336.82547	0.00000	0.00000	0.00000	0.00000	0.00000	0.00000	-2950.30786	984.95367	183.96046	-2997.16577	763.56219	166.47617	0.00000	0.00000	0.00000	0.00000	0.00000	0.00000	0.00000	0.00000	0.00000	-2929.67236	500.53934	106.33695	-2873.62598	498.74142	205.09579	0.00000	0.00000	0.00000	0.00000	0.00000	0.00000	0.00000	0.00000	0.00000	-2886.55005	275.34607	53.15284	-2824.46655	105.76779	62.08178	-2819.91406	105.80090	145.85793	-2758.63965	51.46799	84.51020	-2948.58887	41.56641	180.85893	-2988.02954	52.32848	141.92926	-2959.46460	39.75998	69.30495
2723	10.88800	-2710.16235	999.63788	225.54822	-2799.25757	979.29974	386.45508	0.00000	0.00000	0.00000	0.00000	0.00000	0.00000	-2865.44629	649.39673	451.97690	-2887.82300	757.53918	460.32581	0.00000	0.00000	0.00000	-2905.15430	532.85712	440.31201	-2855.52319	361.05713	398.38773	0.00000	0.00000	0.00000	-2896.08252	360.59335	409.50674	-2891.41089	319.00787	391.90610	-2832.76685	159.74326	276.09824	-2896.63647	186.56790	246.25533	-2802.08228	126.21513	196.15611	-2899.27905	56.92749	351.06607	-2977.38037	63.40281	343.73410	0.00000	0.00000	0.00000	0.00000	0.00000	0.00000	-2953.28809	984.84039	185.55815	0.00000	0.00000	0.00000	-2761.93970	587.46765	85.66425	0.00000	0.00000	0.00000	0.00000	0.00000	0.00000	0.00000	0.00000	0.00000	-2872.18335	498.93280	204.46603	0.00000	0.00000	0.00000	0.00000	0.00000	0.00000	0.00000	0.00000	0.00000	-2886.53369	275.40991	53.15133	-2824.51172	105.86562	62.17822	-2818.67017	105.91012	145.39717	-2758.62744	51.56429	84.56968	0.00000	0.00000	0.00000	-2988.30444	51.95527	142.22940	-2959.45190	39.75246	69.30231
2724	10.89200	-2713.04297	999.82568	225.76350	-2801.16797	979.08276	387.14832	0.00000	0.00000	0.00000	0.00000	0.00000	0.00000	-2866.45996	649.23993	452.99487	-2888.99438	757.57288	461.49359	-2973.30151	534.32233	347.82654	-2907.63843	532.76257	441.38611	0.00000	0.00000	0.00000	0.00000	0.00000	0.00000	-2900.23364	359.54510	411.83838	-2896.85132	317.74796	394.60645	-2843.57275	159.91034	287.48230	-2907.15723	183.87480	250.44449	-2814.45654	121.25935	199.25540	-2909.27515	56.20357	359.99673	-2989.13354	64.02843	351.29831	-2994.33594	57.86007	290.51169	0.00000	0.00000	0.00000	-2956.46875	984.74176	186.89738	0.00000	0.00000	0.00000	-2763.25537	587.38715	86.51437	0.00000	0.00000	0.00000	0.00000	0.00000	0.00000	0.00000	0.00000	0.00000	-2872.52832	499.03070	204.56923	0.00000	0.00000	0.00000	0.00000	0.00000	0.00000	0.00000	0.00000	0.00000	-2886.63867	275.56149	53.21486	-2824.89111	106.08493	62.49688	-2818.69214	106.01377	145.45595	-2758.64746	51.62994	84.60294	0.00000	0.00000	0.00000	-2990.68726	55.13723	141.65610	-2959.48022	39.76142	69.29704
